<svg xmlns="http://www.w3.org/2000/svg" width="152.1" height="21.6" viewBox="0 0 152.1 21.6"><g transform="translate(-375.12 -102.58)"><path d="M81.09-21.3h3.84L91.32-8.79,93.96-21.3h4.92L94.35,0h-3.9L84.06-12.18,81.48,0H76.56ZM107.34.18a7.745,7.745,0,0,1-3.45-.735,7.448,7.448,0,0,1-2.52-1.98,8.735,8.735,0,0,1-1.545-2.85A10.69,10.69,0,0,1,99.3-8.73a10.754,10.754,0,0,1,.48-3.18,13.188,13.188,0,0,1,1.335-2.97,14.5,14.5,0,0,1,2.025-2.61,13.264,13.264,0,0,1,2.6-2.07,13.42,13.42,0,0,1,3.015-1.365,10.938,10.938,0,0,1,3.27-.5,7.545,7.545,0,0,1,3.42.75,7.542,7.542,0,0,1,2.5,1.98,8.687,8.687,0,0,1,1.53,2.85A10.735,10.735,0,0,1,120-12.51a11.211,11.211,0,0,1-1.035,4.68,14.02,14.02,0,0,1-2.79,4.065A14.044,14.044,0,0,1,112.14-.9,11.078,11.078,0,0,1,107.34.18Zm.96-4.38a5.251,5.251,0,0,0,2.79-.75,7.3,7.3,0,0,0,2.085-1.905,9.035,9.035,0,0,0,1.32-2.565,8.783,8.783,0,0,0,.465-2.76,6.969,6.969,0,0,0-.24-1.86,4.879,4.879,0,0,0-.72-1.545,3.424,3.424,0,0,0-1.23-1.065,3.788,3.788,0,0,0-1.77-.39,5.356,5.356,0,0,0-2.775.735,7.123,7.123,0,0,0-2.1,1.875,8.82,8.82,0,0,0-1.32,2.55,8.783,8.783,0,0,0-.465,2.76,7.136,7.136,0,0,0,.24,1.875,4.86,4.86,0,0,0,.72,1.56,3.563,3.563,0,0,0,1.23,1.08A3.672,3.672,0,0,0,108.3-4.2Zm13.38-17.1h5.34l1.56,15.66,3.06-5.73-1.2-9.9h4.5l.54,6.81,3.42-6.81h4.53l-5.49,9.9.69,5.73,8.19-15.66h5.4L139.62,0h-4.08l-1.38-8.34L129.3,0h-4.11Z" transform="translate(375 124)" fill="#fff"/><path d="M.12,0,4.65-21.3H13.8a4.751,4.751,0,0,1,2.235.51,5.158,5.158,0,0,1,1.65,1.35,6.129,6.129,0,0,1,1.035,1.92,6.975,6.975,0,0,1,.36,2.22,7.157,7.157,0,0,1-.345,2.19,8.935,8.935,0,0,1-.96,2.055,9.25,9.25,0,0,1-1.47,1.785A8.5,8.5,0,0,1,14.43-7.92L17.16,0H11.61L9.27-6.87H6.48L5.04,0ZM11.49-11.16a1.671,1.671,0,0,0,.9-.285,2.982,2.982,0,0,0,.81-.78,4.318,4.318,0,0,0,.585-1.155,4.341,4.341,0,0,0,.225-1.41,2.72,2.72,0,0,0-.42-1.59,1.223,1.223,0,0,0-1.02-.6H8.64L7.41-11.16ZM24.06-21.3H38.07l-.93,4.32H28.05l-.87,4.14h7.8l-.84,3.99h-7.8l-.99,4.53h9.36L33.81,0H19.53Zm17.28,0h3.84L51.57-8.79,54.21-21.3h4.92L54.6,0H50.7L44.31-12.18,41.73,0H36.81Zm25.41,4.32H60.66l.9-4.32H78.63l-.9,4.32H71.67L68.04,0H63.12Z" transform="translate(375 124)" fill="#42db0c"/></g></svg>